<mxfile host="Electron" modified="2024-02-05T23:09:24.737Z" agent="Mozilla/5.0 (Windows NT 10.0; Win64; x64) AppleWebKit/537.36 (KHTML, like Gecko) draw.io/23.0.2 Chrome/120.0.6099.109 Electron/28.1.0 Safari/537.36" etag="Ugw1xIzqw_8wdGTsJA3z" version="23.0.2" type="device">
  <diagram id="q37sASlNsruCC2sS7Z7u" name="Complete">
    <mxGraphModel dx="2196" dy="2396" grid="1" gridSize="10" guides="1" tooltips="1" connect="1" arrows="1" fold="1" page="1" pageScale="1" pageWidth="850" pageHeight="1100" math="0" shadow="0">
      <root>
        <mxCell id="0" />
        <mxCell id="1" parent="0" />
        <mxCell id="_Q7EDYe8l2YMMLg8C3C3-1" value="" style="group" parent="1" vertex="1" connectable="0">
          <mxGeometry x="690" y="170" width="600" height="713" as="geometry" />
        </mxCell>
        <mxCell id="_Q7EDYe8l2YMMLg8C3C3-2" value="" style="shape=folder;fontStyle=1;spacingTop=10;tabWidth=70;tabHeight=34;tabPosition=left;html=1;whiteSpace=wrap;" parent="_Q7EDYe8l2YMMLg8C3C3-1" vertex="1">
          <mxGeometry y="5.88" width="190" height="414.12" as="geometry" />
        </mxCell>
        <mxCell id="_Q7EDYe8l2YMMLg8C3C3-3" value="Mesa" style="text;strokeColor=none;align=center;fillColor=none;html=1;verticalAlign=middle;whiteSpace=wrap;rounded=0;" parent="_Q7EDYe8l2YMMLg8C3C3-1" vertex="1">
          <mxGeometry x="4.072727272727272" width="61.090909090909086" height="32.63099834528406" as="geometry" />
        </mxCell>
        <mxCell id="_Q7EDYe8l2YMMLg8C3C3-4" value="Model" style="swimlane;fontStyle=1;align=center;verticalAlign=top;childLayout=stackLayout;horizontal=1;startSize=26;horizontalStack=0;resizeParent=1;resizeParentMax=0;resizeLast=0;collapsible=1;marginBottom=0;whiteSpace=wrap;html=1;" parent="_Q7EDYe8l2YMMLg8C3C3-1" vertex="1">
          <mxGeometry x="9.970909090909117" y="59" width="162.90909090909088" height="86" as="geometry" />
        </mxCell>
        <mxCell id="_Q7EDYe8l2YMMLg8C3C3-5" value="+ ..." style="text;strokeColor=none;fillColor=none;align=left;verticalAlign=top;spacingLeft=4;spacingRight=4;overflow=hidden;rotatable=0;points=[[0,0.5],[1,0.5]];portConstraint=eastwest;whiteSpace=wrap;html=1;" parent="_Q7EDYe8l2YMMLg8C3C3-4" vertex="1">
          <mxGeometry y="26" width="162.90909090909088" height="26" as="geometry" />
        </mxCell>
        <mxCell id="_Q7EDYe8l2YMMLg8C3C3-6" value="" style="line;strokeWidth=1;fillColor=none;align=left;verticalAlign=middle;spacingTop=-1;spacingLeft=3;spacingRight=3;rotatable=0;labelPosition=right;points=[];portConstraint=eastwest;strokeColor=inherit;" parent="_Q7EDYe8l2YMMLg8C3C3-4" vertex="1">
          <mxGeometry y="52" width="162.90909090909088" height="8" as="geometry" />
        </mxCell>
        <mxCell id="_Q7EDYe8l2YMMLg8C3C3-7" value="+ ..." style="text;strokeColor=none;fillColor=none;align=left;verticalAlign=top;spacingLeft=4;spacingRight=4;overflow=hidden;rotatable=0;points=[[0,0.5],[1,0.5]];portConstraint=eastwest;whiteSpace=wrap;html=1;" parent="_Q7EDYe8l2YMMLg8C3C3-4" vertex="1">
          <mxGeometry y="60" width="162.90909090909088" height="26" as="geometry" />
        </mxCell>
        <mxCell id="_Q7EDYe8l2YMMLg8C3C3-8" value="BaseScheduler" style="swimlane;fontStyle=1;align=center;verticalAlign=top;childLayout=stackLayout;horizontal=1;startSize=26;horizontalStack=0;resizeParent=1;resizeParentMax=0;resizeLast=0;collapsible=1;marginBottom=0;whiteSpace=wrap;html=1;" parent="_Q7EDYe8l2YMMLg8C3C3-1" vertex="1">
          <mxGeometry x="9.970909090909117" y="180" width="162.90909090909088" height="86" as="geometry" />
        </mxCell>
        <mxCell id="_Q7EDYe8l2YMMLg8C3C3-9" value="+ ..." style="text;strokeColor=none;fillColor=none;align=left;verticalAlign=top;spacingLeft=4;spacingRight=4;overflow=hidden;rotatable=0;points=[[0,0.5],[1,0.5]];portConstraint=eastwest;whiteSpace=wrap;html=1;" parent="_Q7EDYe8l2YMMLg8C3C3-8" vertex="1">
          <mxGeometry y="26" width="162.90909090909088" height="26" as="geometry" />
        </mxCell>
        <mxCell id="_Q7EDYe8l2YMMLg8C3C3-10" value="" style="line;strokeWidth=1;fillColor=none;align=left;verticalAlign=middle;spacingTop=-1;spacingLeft=3;spacingRight=3;rotatable=0;labelPosition=right;points=[];portConstraint=eastwest;strokeColor=inherit;" parent="_Q7EDYe8l2YMMLg8C3C3-8" vertex="1">
          <mxGeometry y="52" width="162.90909090909088" height="8" as="geometry" />
        </mxCell>
        <mxCell id="_Q7EDYe8l2YMMLg8C3C3-11" value="+ ..." style="text;strokeColor=none;fillColor=none;align=left;verticalAlign=top;spacingLeft=4;spacingRight=4;overflow=hidden;rotatable=0;points=[[0,0.5],[1,0.5]];portConstraint=eastwest;whiteSpace=wrap;html=1;" parent="_Q7EDYe8l2YMMLg8C3C3-8" vertex="1">
          <mxGeometry y="60" width="162.90909090909088" height="26" as="geometry" />
        </mxCell>
        <mxCell id="_Q7EDYe8l2YMMLg8C3C3-12" value="Agent" style="swimlane;fontStyle=1;align=center;verticalAlign=top;childLayout=stackLayout;horizontal=1;startSize=26;horizontalStack=0;resizeParent=1;resizeParentMax=0;resizeLast=0;collapsible=1;marginBottom=0;whiteSpace=wrap;html=1;" parent="_Q7EDYe8l2YMMLg8C3C3-1" vertex="1">
          <mxGeometry x="9.970909090909117" y="300" width="162.90909090909088" height="86" as="geometry" />
        </mxCell>
        <mxCell id="_Q7EDYe8l2YMMLg8C3C3-13" value="+ ..." style="text;strokeColor=none;fillColor=none;align=left;verticalAlign=top;spacingLeft=4;spacingRight=4;overflow=hidden;rotatable=0;points=[[0,0.5],[1,0.5]];portConstraint=eastwest;whiteSpace=wrap;html=1;" parent="_Q7EDYe8l2YMMLg8C3C3-12" vertex="1">
          <mxGeometry y="26" width="162.90909090909088" height="26" as="geometry" />
        </mxCell>
        <mxCell id="_Q7EDYe8l2YMMLg8C3C3-14" value="" style="line;strokeWidth=1;fillColor=none;align=left;verticalAlign=middle;spacingTop=-1;spacingLeft=3;spacingRight=3;rotatable=0;labelPosition=right;points=[];portConstraint=eastwest;strokeColor=inherit;" parent="_Q7EDYe8l2YMMLg8C3C3-12" vertex="1">
          <mxGeometry y="52" width="162.90909090909088" height="8" as="geometry" />
        </mxCell>
        <mxCell id="_Q7EDYe8l2YMMLg8C3C3-15" value="+ ..." style="text;strokeColor=none;fillColor=none;align=left;verticalAlign=top;spacingLeft=4;spacingRight=4;overflow=hidden;rotatable=0;points=[[0,0.5],[1,0.5]];portConstraint=eastwest;whiteSpace=wrap;html=1;" parent="_Q7EDYe8l2YMMLg8C3C3-12" vertex="1">
          <mxGeometry y="60" width="162.90909090909088" height="26" as="geometry" />
        </mxCell>
        <mxCell id="_Q7EDYe8l2YMMLg8C3C3-16" value="&lt;i style=&quot;border-color: var(--border-color); font-weight: 400;&quot;&gt;&lt;b style=&quot;border-color: var(--border-color);&quot;&gt;AirlineAgent&lt;/b&gt;&lt;/i&gt;" style="swimlane;fontStyle=1;align=center;verticalAlign=top;childLayout=stackLayout;horizontal=1;startSize=26;horizontalStack=0;resizeParent=1;resizeParentMax=0;resizeLast=0;collapsible=1;marginBottom=0;whiteSpace=wrap;html=1;" parent="_Q7EDYe8l2YMMLg8C3C3-1" vertex="1">
          <mxGeometry x="430" y="142" width="240" height="306" as="geometry" />
        </mxCell>
        <mxCell id="_Q7EDYe8l2YMMLg8C3C3-17" value="+ name: str&lt;span style=&quot;&quot;&gt;&lt;br&gt;&lt;br&gt;&lt;/span&gt;" style="text;strokeColor=none;fillColor=none;align=left;verticalAlign=top;spacingLeft=4;spacingRight=4;overflow=hidden;rotatable=0;points=[[0,0.5],[1,0.5]];portConstraint=eastwest;whiteSpace=wrap;html=1;" parent="_Q7EDYe8l2YMMLg8C3C3-16" vertex="1">
          <mxGeometry y="26" width="240" height="20" as="geometry" />
        </mxCell>
        <mxCell id="_Q7EDYe8l2YMMLg8C3C3-18" value="+ n_flights: int&lt;span style=&quot;&quot;&gt;&lt;br&gt;&lt;br&gt;&lt;/span&gt;" style="text;strokeColor=none;fillColor=none;align=left;verticalAlign=top;spacingLeft=4;spacingRight=4;overflow=hidden;rotatable=0;points=[[0,0.5],[1,0.5]];portConstraint=eastwest;whiteSpace=wrap;html=1;" parent="_Q7EDYe8l2YMMLg8C3C3-16" vertex="1">
          <mxGeometry y="46" width="240" height="24" as="geometry" />
        </mxCell>
        <mxCell id="_Q7EDYe8l2YMMLg8C3C3-19" value="+ flight_list: list&lt;span style=&quot;&quot;&gt;&lt;br&gt;&lt;br&gt;&lt;/span&gt;" style="text;strokeColor=none;fillColor=none;align=left;verticalAlign=top;spacingLeft=4;spacingRight=4;overflow=hidden;rotatable=0;points=[[0,0.5],[1,0.5]];portConstraint=eastwest;whiteSpace=wrap;html=1;" parent="_Q7EDYe8l2YMMLg8C3C3-16" vertex="1">
          <mxGeometry y="70" width="240" height="24" as="geometry" />
        </mxCell>
        <mxCell id="_Q7EDYe8l2YMMLg8C3C3-20" value="+ flight_objects_list: list&lt;span style=&quot;&quot;&gt;&lt;br&gt;&lt;br&gt;&lt;/span&gt;" style="text;strokeColor=none;fillColor=none;align=left;verticalAlign=top;spacingLeft=4;spacingRight=4;overflow=hidden;rotatable=0;points=[[0,0.5],[1,0.5]];portConstraint=eastwest;whiteSpace=wrap;html=1;" parent="_Q7EDYe8l2YMMLg8C3C3-16" vertex="1">
          <mxGeometry y="94" width="240" height="24" as="geometry" />
        </mxCell>
        <mxCell id="_Q7EDYe8l2YMMLg8C3C3-21" value="+ matrix_flight_preferences: np.array&lt;span style=&quot;&quot;&gt;&lt;br&gt;&lt;br&gt;&lt;/span&gt;" style="text;strokeColor=none;fillColor=none;align=left;verticalAlign=top;spacingLeft=4;spacingRight=4;overflow=hidden;rotatable=0;points=[[0,0.5],[1,0.5]];portConstraint=eastwest;whiteSpace=wrap;html=1;" parent="_Q7EDYe8l2YMMLg8C3C3-16" vertex="1">
          <mxGeometry y="118" width="240" height="24" as="geometry" />
        </mxCell>
        <mxCell id="_Q7EDYe8l2YMMLg8C3C3-22" value="" style="line;strokeWidth=1;fillColor=none;align=left;verticalAlign=middle;spacingTop=-1;spacingLeft=3;spacingRight=3;rotatable=0;labelPosition=right;points=[];portConstraint=eastwest;strokeColor=inherit;" parent="_Q7EDYe8l2YMMLg8C3C3-16" vertex="1">
          <mxGeometry y="142" width="240" height="8" as="geometry" />
        </mxCell>
        <mxCell id="_Q7EDYe8l2YMMLg8C3C3-23" value="&lt;p style=&quot;border-color: var(--border-color); margin: 0px 0px 0px 4px;&quot;&gt;+ __init__()&lt;/p&gt;" style="text;strokeColor=none;fillColor=none;align=left;verticalAlign=top;spacingLeft=4;spacingRight=4;overflow=hidden;rotatable=0;points=[[0,0.5],[1,0.5]];portConstraint=eastwest;whiteSpace=wrap;html=1;" parent="_Q7EDYe8l2YMMLg8C3C3-16" vertex="1">
          <mxGeometry y="150" width="240" height="26" as="geometry" />
        </mxCell>
        <mxCell id="_Q7EDYe8l2YMMLg8C3C3-24" value="&lt;p style=&quot;border-color: var(--border-color); margin: 0px 0px 0px 4px;&quot;&gt;+ assign_priority()&lt;/p&gt;" style="text;strokeColor=none;fillColor=none;align=left;verticalAlign=top;spacingLeft=4;spacingRight=4;overflow=hidden;rotatable=0;points=[[0,0.5],[1,0.5]];portConstraint=eastwest;whiteSpace=wrap;html=1;" parent="_Q7EDYe8l2YMMLg8C3C3-16" vertex="1">
          <mxGeometry y="176" width="240" height="26" as="geometry" />
        </mxCell>
        <mxCell id="_Q7EDYe8l2YMMLg8C3C3-25" value="&lt;p style=&quot;border-color: var(--border-color); margin: 0px 0px 0px 4px;&quot;&gt;+ assign_desired_time()&lt;/p&gt;" style="text;strokeColor=none;fillColor=none;align=left;verticalAlign=top;spacingLeft=4;spacingRight=4;overflow=hidden;rotatable=0;points=[[0,0.5],[1,0.5]];portConstraint=eastwest;whiteSpace=wrap;html=1;" parent="_Q7EDYe8l2YMMLg8C3C3-16" vertex="1">
          <mxGeometry y="202" width="240" height="26" as="geometry" />
        </mxCell>
        <mxCell id="_Q7EDYe8l2YMMLg8C3C3-26" value="&lt;p style=&quot;border-color: var(--border-color); margin: 0px 0px 0px 4px;&quot;&gt;+ assign_margins()&lt;/p&gt;" style="text;strokeColor=none;fillColor=none;align=left;verticalAlign=top;spacingLeft=4;spacingRight=4;overflow=hidden;rotatable=0;points=[[0,0.5],[1,0.5]];portConstraint=eastwest;whiteSpace=wrap;html=1;" parent="_Q7EDYe8l2YMMLg8C3C3-16" vertex="1">
          <mxGeometry y="228" width="240" height="26" as="geometry" />
        </mxCell>
        <mxCell id="_Q7EDYe8l2YMMLg8C3C3-27" value="&lt;p style=&quot;border-color: var(--border-color); margin: 0px 0px 0px 4px;&quot;&gt;+ define_flight_preferences()&lt;/p&gt;" style="text;strokeColor=none;fillColor=none;align=left;verticalAlign=top;spacingLeft=4;spacingRight=4;overflow=hidden;rotatable=0;points=[[0,0.5],[1,0.5]];portConstraint=eastwest;whiteSpace=wrap;html=1;" parent="_Q7EDYe8l2YMMLg8C3C3-16" vertex="1">
          <mxGeometry y="254" width="240" height="26" as="geometry" />
        </mxCell>
        <mxCell id="_Q7EDYe8l2YMMLg8C3C3-28" value="&lt;p style=&quot;border-color: var(--border-color); margin: 0px 0px 0px 4px;&quot;&gt;+ step()&lt;/p&gt;" style="text;strokeColor=none;fillColor=none;align=left;verticalAlign=top;spacingLeft=4;spacingRight=4;overflow=hidden;rotatable=0;points=[[0,0.5],[1,0.5]];portConstraint=eastwest;whiteSpace=wrap;html=1;" parent="_Q7EDYe8l2YMMLg8C3C3-16" vertex="1">
          <mxGeometry y="280" width="240" height="26" as="geometry" />
        </mxCell>
        <mxCell id="_Q7EDYe8l2YMMLg8C3C3-29" value="&lt;p style=&quot;margin:0px;margin-top:4px;text-align:center;&quot;&gt;&lt;i&gt;&amp;lt;&amp;lt;Interface&amp;gt;&amp;gt;&lt;/i&gt;&lt;br&gt;&lt;b&gt;PriorityAssignmentStrategy&lt;br&gt;&lt;/b&gt;&lt;/p&gt;&lt;hr size=&quot;1&quot;&gt;&lt;p style=&quot;margin:0px;margin-left:4px;&quot;&gt;+&amp;nbsp;&lt;br&gt;&lt;/p&gt;&lt;hr size=&quot;1&quot;&gt;&lt;p style=&quot;margin:0px;margin-left:4px;&quot;&gt;+ assign_priority()&lt;br&gt;&lt;/p&gt;" style="verticalAlign=top;align=left;overflow=fill;fontSize=12;fontFamily=Helvetica;html=1;whiteSpace=wrap;" parent="_Q7EDYe8l2YMMLg8C3C3-1" vertex="1">
          <mxGeometry x="110" y="590" width="200" height="103" as="geometry" />
        </mxCell>
        <mxCell id="_Q7EDYe8l2YMMLg8C3C3-30" value="" style="endArrow=none;endFill=0;html=1;edgeStyle=orthogonalEdgeStyle;align=left;verticalAlign=top;rounded=0;exitX=1;exitY=0.5;exitDx=0;exitDy=0;entryX=0.5;entryY=1;entryDx=0;entryDy=0;" parent="_Q7EDYe8l2YMMLg8C3C3-1" source="_Q7EDYe8l2YMMLg8C3C3-29" target="_Q7EDYe8l2YMMLg8C3C3-16" edge="1">
          <mxGeometry x="-1" relative="1" as="geometry">
            <mxPoint x="400" y="660" as="sourcePoint" />
            <mxPoint x="550" y="541" as="targetPoint" />
            <Array as="points">
              <mxPoint x="550" y="641" />
            </Array>
          </mxGeometry>
        </mxCell>
        <mxCell id="_Q7EDYe8l2YMMLg8C3C3-31" value="1" style="edgeLabel;resizable=0;html=1;align=left;verticalAlign=bottom;" parent="_Q7EDYe8l2YMMLg8C3C3-30" connectable="0" vertex="1">
          <mxGeometry x="-1" relative="1" as="geometry">
            <mxPoint x="10" y="-8" as="offset" />
          </mxGeometry>
        </mxCell>
        <mxCell id="_Q7EDYe8l2YMMLg8C3C3-32" value="1" style="edgeLabel;resizable=0;html=1;align=left;verticalAlign=bottom;" parent="_Q7EDYe8l2YMMLg8C3C3-1" connectable="0" vertex="1">
          <mxGeometry x="530" y="560.0000000000005" as="geometry" />
        </mxCell>
        <mxCell id="_Q7EDYe8l2YMMLg8C3C3-33" value="" style="endArrow=block;dashed=1;endFill=0;endSize=12;html=1;rounded=0;exitX=1.004;exitY=0.929;exitDx=0;exitDy=0;exitPerimeter=0;entryX=0;entryY=0.5;entryDx=0;entryDy=0;" parent="_Q7EDYe8l2YMMLg8C3C3-1" source="_Q7EDYe8l2YMMLg8C3C3-97" edge="1">
          <mxGeometry width="160" relative="1" as="geometry">
            <mxPoint x="-1.75" y="641.9159999999997" as="sourcePoint" />
            <mxPoint x="110" y="640" as="targetPoint" />
          </mxGeometry>
        </mxCell>
        <mxCell id="_Q7EDYe8l2YMMLg8C3C3-34" value="Extends" style="endArrow=block;endSize=16;endFill=0;html=1;rounded=0;entryX=0.977;entryY=1.002;entryDx=0;entryDy=0;entryPerimeter=0;" parent="_Q7EDYe8l2YMMLg8C3C3-1" target="_Q7EDYe8l2YMMLg8C3C3-13" edge="1">
          <mxGeometry width="160" relative="1" as="geometry">
            <mxPoint x="420" y="350" as="sourcePoint" />
            <mxPoint x="300" y="480" as="targetPoint" />
          </mxGeometry>
        </mxCell>
        <mxCell id="_Q7EDYe8l2YMMLg8C3C3-35" value="ScheduledFlight" style="swimlane;fontStyle=1;align=center;verticalAlign=top;childLayout=stackLayout;horizontal=1;startSize=26;horizontalStack=0;resizeParent=1;resizeParentMax=0;resizeLast=0;collapsible=1;marginBottom=0;whiteSpace=wrap;html=1;" parent="1" vertex="1">
          <mxGeometry x="1130" y="-128" width="200" height="128" as="geometry">
            <mxRectangle x="1021" y="180" width="70" height="30" as="alternateBounds" />
          </mxGeometry>
        </mxCell>
        <mxCell id="_Q7EDYe8l2YMMLg8C3C3-36" value="&lt;p style=&quot;border-color: var(--border-color); margin: 0px 0px 0px 4px;&quot;&gt;+ flight_number: int&lt;br style=&quot;border-color: var(--border-color);&quot;&gt;&lt;br&gt;&lt;/p&gt;" style="text;strokeColor=none;fillColor=none;align=left;verticalAlign=top;spacingLeft=4;spacingRight=4;overflow=hidden;rotatable=0;points=[[0,0.5],[1,0.5]];portConstraint=eastwest;whiteSpace=wrap;html=1;" parent="_Q7EDYe8l2YMMLg8C3C3-35" vertex="1">
          <mxGeometry y="26" width="200" height="24" as="geometry" />
        </mxCell>
        <mxCell id="_y0UdEmhyW5G_1v9WkD6-2" value="&lt;p style=&quot;border-color: var(--border-color); margin: 0px 0px 0px 4px;&quot;&gt;+ scheduled_time: int&lt;/p&gt;" style="text;strokeColor=none;fillColor=none;align=left;verticalAlign=top;spacingLeft=4;spacingRight=4;overflow=hidden;rotatable=0;points=[[0,0.5],[1,0.5]];portConstraint=eastwest;whiteSpace=wrap;html=1;" vertex="1" parent="_Q7EDYe8l2YMMLg8C3C3-35">
          <mxGeometry y="50" width="200" height="24" as="geometry" />
        </mxCell>
        <mxCell id="_Q7EDYe8l2YMMLg8C3C3-37" value="&lt;p style=&quot;border-color: var(--border-color); margin: 0px 0px 0px 4px;&quot;&gt;+&amp;nbsp;list_of_actual_flights&lt;span style=&quot;background-color: initial;&quot;&gt;: int&lt;/span&gt;&lt;/p&gt;" style="text;strokeColor=none;fillColor=none;align=left;verticalAlign=top;spacingLeft=4;spacingRight=4;overflow=hidden;rotatable=0;points=[[0,0.5],[1,0.5]];portConstraint=eastwest;whiteSpace=wrap;html=1;" parent="_Q7EDYe8l2YMMLg8C3C3-35" vertex="1">
          <mxGeometry y="74" width="200" height="24" as="geometry" />
        </mxCell>
        <mxCell id="_Q7EDYe8l2YMMLg8C3C3-38" value="" style="line;strokeWidth=1;fillColor=none;align=left;verticalAlign=middle;spacingTop=-1;spacingLeft=3;spacingRight=3;rotatable=0;labelPosition=right;points=[];portConstraint=eastwest;strokeColor=inherit;" parent="_Q7EDYe8l2YMMLg8C3C3-35" vertex="1">
          <mxGeometry y="98" width="200" height="8" as="geometry" />
        </mxCell>
        <mxCell id="_Q7EDYe8l2YMMLg8C3C3-39" value="+&amp;nbsp;" style="text;strokeColor=none;fillColor=none;align=left;verticalAlign=top;spacingLeft=4;spacingRight=4;overflow=hidden;rotatable=0;points=[[0,0.5],[1,0.5]];portConstraint=eastwest;whiteSpace=wrap;html=1;" parent="_Q7EDYe8l2YMMLg8C3C3-35" vertex="1">
          <mxGeometry y="106" width="200" height="22" as="geometry" />
        </mxCell>
        <mxCell id="_Q7EDYe8l2YMMLg8C3C3-49" value="ReducedCapacityStrategy" style="swimlane;fontStyle=1;align=center;verticalAlign=top;childLayout=stackLayout;horizontal=1;startSize=26;horizontalStack=0;resizeParent=1;resizeParentMax=0;resizeLast=0;collapsible=1;marginBottom=0;whiteSpace=wrap;html=1;" parent="1" vertex="1">
          <mxGeometry x="2600" y="124" width="200" height="86" as="geometry" />
        </mxCell>
        <mxCell id="_Q7EDYe8l2YMMLg8C3C3-50" value="+&amp;nbsp;" style="text;strokeColor=none;fillColor=none;align=left;verticalAlign=top;spacingLeft=4;spacingRight=4;overflow=hidden;rotatable=0;points=[[0,0.5],[1,0.5]];portConstraint=eastwest;whiteSpace=wrap;html=1;" parent="_Q7EDYe8l2YMMLg8C3C3-49" vertex="1">
          <mxGeometry y="26" width="200" height="26" as="geometry" />
        </mxCell>
        <mxCell id="_Q7EDYe8l2YMMLg8C3C3-51" value="" style="line;strokeWidth=1;fillColor=none;align=left;verticalAlign=middle;spacingTop=-1;spacingLeft=3;spacingRight=3;rotatable=0;labelPosition=right;points=[];portConstraint=eastwest;strokeColor=inherit;" parent="_Q7EDYe8l2YMMLg8C3C3-49" vertex="1">
          <mxGeometry y="52" width="200" height="8" as="geometry" />
        </mxCell>
        <mxCell id="_Q7EDYe8l2YMMLg8C3C3-52" value="+ regulation()" style="text;strokeColor=none;fillColor=none;align=left;verticalAlign=top;spacingLeft=4;spacingRight=4;overflow=hidden;rotatable=0;points=[[0,0.5],[1,0.5]];portConstraint=eastwest;whiteSpace=wrap;html=1;" parent="_Q7EDYe8l2YMMLg8C3C3-49" vertex="1">
          <mxGeometry y="60" width="200" height="26" as="geometry" />
        </mxCell>
        <mxCell id="_Q7EDYe8l2YMMLg8C3C3-58" value="" style="endArrow=block;dashed=1;endFill=0;endSize=12;html=1;rounded=0;exitX=-0.023;exitY=0.647;exitDx=0;exitDy=0;exitPerimeter=0;entryX=1.011;entryY=0.355;entryDx=0;entryDy=0;entryPerimeter=0;" parent="1" source="_Q7EDYe8l2YMMLg8C3C3-50" target="_Q7EDYe8l2YMMLg8C3C3-95" edge="1">
          <mxGeometry width="160" relative="1" as="geometry">
            <mxPoint x="2617" y="186" as="sourcePoint" />
            <mxPoint x="2547" y="225.8712306153077" as="targetPoint" />
          </mxGeometry>
        </mxCell>
        <mxCell id="_Q7EDYe8l2YMMLg8C3C3-59" value="&lt;i style=&quot;border-color: var(--border-color);&quot;&gt;Regulation&lt;/i&gt;" style="swimlane;fontStyle=1;align=center;verticalAlign=top;childLayout=stackLayout;horizontal=1;startSize=26;horizontalStack=0;resizeParent=1;resizeParentMax=0;resizeLast=0;collapsible=1;marginBottom=0;whiteSpace=wrap;html=1;" parent="1" vertex="1">
          <mxGeometry x="1890" y="129" width="300" height="268" as="geometry">
            <mxRectangle x="440" y="161" width="180" height="30" as="alternateBounds" />
          </mxGeometry>
        </mxCell>
        <mxCell id="_Q7EDYe8l2YMMLg8C3C3-60" value="+ n_times: int&lt;br&gt;+ step_number:int&lt;br&gt;+ seed: int&lt;br&gt;+ self.flight_object_list: None&lt;br&gt;+ window_strategy: Object&lt;br&gt;+ regulation_strategy:Object&lt;br&gt;+ capacity: int" style="text;strokeColor=none;fillColor=none;align=left;verticalAlign=top;spacingLeft=4;spacingRight=4;overflow=hidden;rotatable=0;points=[[0,0.5],[1,0.5]];portConstraint=eastwest;whiteSpace=wrap;html=1;" parent="_Q7EDYe8l2YMMLg8C3C3-59" vertex="1">
          <mxGeometry y="26" width="300" height="114" as="geometry" />
        </mxCell>
        <mxCell id="_Q7EDYe8l2YMMLg8C3C3-61" value="" style="line;strokeWidth=1;fillColor=none;align=left;verticalAlign=middle;spacingTop=-1;spacingLeft=3;spacingRight=3;rotatable=0;labelPosition=right;points=[];portConstraint=eastwest;strokeColor=inherit;" parent="_Q7EDYe8l2YMMLg8C3C3-59" vertex="1">
          <mxGeometry y="140" width="300" height="8" as="geometry" />
        </mxCell>
        <mxCell id="_Q7EDYe8l2YMMLg8C3C3-62" value="+&amp;nbsp; generate_window()&lt;br&gt;+&amp;nbsp; delayed_flights()&lt;br&gt;+ run_regulation_strategy()&lt;br&gt;+&amp;nbsp; assign_slots()&lt;br&gt;+&amp;nbsp; assigned_time_array()&lt;br&gt;+&amp;nbsp; start_regulation()" style="text;strokeColor=none;fillColor=none;align=left;verticalAlign=top;spacingLeft=4;spacingRight=4;overflow=hidden;rotatable=0;points=[[0,0.5],[1,0.5]];portConstraint=eastwest;whiteSpace=wrap;html=1;" parent="_Q7EDYe8l2YMMLg8C3C3-59" vertex="1">
          <mxGeometry y="148" width="300" height="120" as="geometry" />
        </mxCell>
        <mxCell id="_Q7EDYe8l2YMMLg8C3C3-63" value="&lt;i style=&quot;border-color: var(--border-color);&quot;&gt;SequentialScheduler&lt;/i&gt;" style="swimlane;fontStyle=1;align=center;verticalAlign=top;childLayout=stackLayout;horizontal=1;startSize=26;horizontalStack=0;resizeParent=1;resizeParentMax=0;resizeLast=0;collapsible=1;marginBottom=0;whiteSpace=wrap;html=1;" parent="1" vertex="1">
          <mxGeometry x="850" y="-2" width="200" height="150" as="geometry" />
        </mxCell>
        <mxCell id="_Q7EDYe8l2YMMLg8C3C3-64" value="+&amp;nbsp;" style="text;strokeColor=none;fillColor=none;align=left;verticalAlign=top;spacingLeft=4;spacingRight=4;overflow=hidden;rotatable=0;points=[[0,0.5],[1,0.5]];portConstraint=eastwest;whiteSpace=wrap;html=1;" parent="_Q7EDYe8l2YMMLg8C3C3-63" vertex="1">
          <mxGeometry y="26" width="200" height="26" as="geometry" />
        </mxCell>
        <mxCell id="_Q7EDYe8l2YMMLg8C3C3-65" value="" style="line;strokeWidth=1;fillColor=none;align=left;verticalAlign=middle;spacingTop=-1;spacingLeft=3;spacingRight=3;rotatable=0;labelPosition=right;points=[];portConstraint=eastwest;strokeColor=inherit;" parent="_Q7EDYe8l2YMMLg8C3C3-63" vertex="1">
          <mxGeometry y="52" width="200" height="8" as="geometry" />
        </mxCell>
        <mxCell id="_Q7EDYe8l2YMMLg8C3C3-66" value="&lt;p style=&quot;border-color: var(--border-color); margin: 0px 0px 0px 4px;&quot;&gt;+ __init__()&lt;/p&gt;" style="text;strokeColor=none;fillColor=none;align=left;verticalAlign=top;spacingLeft=4;spacingRight=4;overflow=hidden;rotatable=0;points=[[0,0.5],[1,0.5]];portConstraint=eastwest;whiteSpace=wrap;html=1;" parent="_Q7EDYe8l2YMMLg8C3C3-63" vertex="1">
          <mxGeometry y="60" width="200" height="30" as="geometry" />
        </mxCell>
        <mxCell id="_Q7EDYe8l2YMMLg8C3C3-67" value="&lt;p style=&quot;border-color: var(--border-color); margin: 0px 0px 0px 4px;&quot;&gt;+ add_agent_to_sequence()&lt;/p&gt;&lt;p style=&quot;border-color: var(--border-color); margin: 0px 0px 0px 4px;&quot;&gt;&lt;br&gt;&lt;/p&gt;" style="text;strokeColor=none;fillColor=none;align=left;verticalAlign=top;spacingLeft=4;spacingRight=4;overflow=hidden;rotatable=0;points=[[0,0.5],[1,0.5]];portConstraint=eastwest;whiteSpace=wrap;html=1;" parent="_Q7EDYe8l2YMMLg8C3C3-63" vertex="1">
          <mxGeometry y="90" width="200" height="30" as="geometry" />
        </mxCell>
        <mxCell id="_Q7EDYe8l2YMMLg8C3C3-68" value="&lt;p style=&quot;border-color: var(--border-color); margin: 0px 0px 0px 4px;&quot;&gt;+ step()&lt;/p&gt;&lt;p style=&quot;border-color: var(--border-color); margin: 0px 0px 0px 4px;&quot;&gt;&lt;br&gt;&lt;/p&gt;" style="text;strokeColor=none;fillColor=none;align=left;verticalAlign=top;spacingLeft=4;spacingRight=4;overflow=hidden;rotatable=0;points=[[0,0.5],[1,0.5]];portConstraint=eastwest;whiteSpace=wrap;html=1;" parent="_Q7EDYe8l2YMMLg8C3C3-63" vertex="1">
          <mxGeometry y="120" width="200" height="30" as="geometry" />
        </mxCell>
        <mxCell id="_Q7EDYe8l2YMMLg8C3C3-69" value="LinearAsignmentProblem" style="swimlane;fontStyle=1;align=center;verticalAlign=top;childLayout=stackLayout;horizontal=1;startSize=26;horizontalStack=0;resizeParent=1;resizeParentMax=0;resizeLast=0;collapsible=1;marginBottom=0;whiteSpace=wrap;html=1;" parent="1" vertex="1">
          <mxGeometry x="2004" y="726" width="200" height="86" as="geometry" />
        </mxCell>
        <mxCell id="_Q7EDYe8l2YMMLg8C3C3-70" value="+&amp;nbsp;" style="text;strokeColor=none;fillColor=none;align=left;verticalAlign=top;spacingLeft=4;spacingRight=4;overflow=hidden;rotatable=0;points=[[0,0.5],[1,0.5]];portConstraint=eastwest;whiteSpace=wrap;html=1;" parent="_Q7EDYe8l2YMMLg8C3C3-69" vertex="1">
          <mxGeometry y="26" width="200" height="26" as="geometry" />
        </mxCell>
        <mxCell id="_Q7EDYe8l2YMMLg8C3C3-71" value="" style="line;strokeWidth=1;fillColor=none;align=left;verticalAlign=middle;spacingTop=-1;spacingLeft=3;spacingRight=3;rotatable=0;labelPosition=right;points=[];portConstraint=eastwest;strokeColor=inherit;" parent="_Q7EDYe8l2YMMLg8C3C3-69" vertex="1">
          <mxGeometry y="52" width="200" height="8" as="geometry" />
        </mxCell>
        <mxCell id="_Q7EDYe8l2YMMLg8C3C3-72" value="+ run_optimizer()" style="text;strokeColor=none;fillColor=none;align=left;verticalAlign=top;spacingLeft=4;spacingRight=4;overflow=hidden;rotatable=0;points=[[0,0.5],[1,0.5]];portConstraint=eastwest;whiteSpace=wrap;html=1;" parent="_Q7EDYe8l2YMMLg8C3C3-69" vertex="1">
          <mxGeometry y="60" width="200" height="26" as="geometry" />
        </mxCell>
        <mxCell id="_Q7EDYe8l2YMMLg8C3C3-73" value="" style="endArrow=block;dashed=1;endFill=0;endSize=12;html=1;rounded=0;exitX=0;exitY=0.5;exitDx=0;exitDy=0;entryX=1.005;entryY=0.384;entryDx=0;entryDy=0;entryPerimeter=0;" parent="1" source="_Q7EDYe8l2YMMLg8C3C3-70" target="_Q7EDYe8l2YMMLg8C3C3-92" edge="1">
          <mxGeometry width="160" relative="1" as="geometry">
            <mxPoint x="2308.82" y="942" as="sourcePoint" />
            <mxPoint x="2239" y="896" as="targetPoint" />
          </mxGeometry>
        </mxCell>
        <mxCell id="_Q7EDYe8l2YMMLg8C3C3-74" value="CreditMarketMechanism" style="swimlane;fontStyle=1;align=center;verticalAlign=top;childLayout=stackLayout;horizontal=1;startSize=26;horizontalStack=0;resizeParent=1;resizeParentMax=0;resizeLast=0;collapsible=1;marginBottom=0;whiteSpace=wrap;html=1;" parent="1" vertex="1">
          <mxGeometry x="2004" y="926" width="200" height="86" as="geometry" />
        </mxCell>
        <mxCell id="_Q7EDYe8l2YMMLg8C3C3-75" value="+&amp;nbsp;" style="text;strokeColor=none;fillColor=none;align=left;verticalAlign=top;spacingLeft=4;spacingRight=4;overflow=hidden;rotatable=0;points=[[0,0.5],[1,0.5]];portConstraint=eastwest;whiteSpace=wrap;html=1;" parent="_Q7EDYe8l2YMMLg8C3C3-74" vertex="1">
          <mxGeometry y="26" width="200" height="26" as="geometry" />
        </mxCell>
        <mxCell id="_Q7EDYe8l2YMMLg8C3C3-76" value="" style="line;strokeWidth=1;fillColor=none;align=left;verticalAlign=middle;spacingTop=-1;spacingLeft=3;spacingRight=3;rotatable=0;labelPosition=right;points=[];portConstraint=eastwest;strokeColor=inherit;" parent="_Q7EDYe8l2YMMLg8C3C3-74" vertex="1">
          <mxGeometry y="52" width="200" height="8" as="geometry" />
        </mxCell>
        <mxCell id="_Q7EDYe8l2YMMLg8C3C3-77" value="+ run_equity()" style="text;strokeColor=none;fillColor=none;align=left;verticalAlign=top;spacingLeft=4;spacingRight=4;overflow=hidden;rotatable=0;points=[[0,0.5],[1,0.5]];portConstraint=eastwest;whiteSpace=wrap;html=1;" parent="_Q7EDYe8l2YMMLg8C3C3-74" vertex="1">
          <mxGeometry y="60" width="200" height="26" as="geometry" />
        </mxCell>
        <mxCell id="_Q7EDYe8l2YMMLg8C3C3-78" value="" style="endArrow=block;dashed=1;endFill=0;endSize=12;html=1;rounded=0;exitX=-0.023;exitY=0.647;exitDx=0;exitDy=0;exitPerimeter=0;entryX=1.001;entryY=0.421;entryDx=0;entryDy=0;entryPerimeter=0;" parent="1" source="_Q7EDYe8l2YMMLg8C3C3-75" target="_Q7EDYe8l2YMMLg8C3C3-93" edge="1">
          <mxGeometry width="160" relative="1" as="geometry">
            <mxPoint x="2309.82" y="1182" as="sourcePoint" />
            <mxPoint x="2239.82" y="1221.8712306153077" as="targetPoint" />
          </mxGeometry>
        </mxCell>
        <mxCell id="_Q7EDYe8l2YMMLg8C3C3-79" value="&lt;i style=&quot;border-color: var(--border-color); font-weight: 400;&quot;&gt;&lt;b style=&quot;border-color: var(--border-color);&quot;&gt;SimulationModel&lt;/b&gt;&lt;/i&gt;" style="swimlane;fontStyle=1;align=center;verticalAlign=top;childLayout=stackLayout;horizontal=1;startSize=26;horizontalStack=0;resizeParent=1;resizeParentMax=0;resizeLast=0;collapsible=1;marginBottom=0;whiteSpace=wrap;html=1;" parent="1" vertex="1">
          <mxGeometry x="1520" y="80" width="180" height="160" as="geometry" />
        </mxCell>
        <mxCell id="_Q7EDYe8l2YMMLg8C3C3-81" value="+ self.step_counter" style="text;strokeColor=none;fillColor=none;align=left;verticalAlign=top;spacingLeft=4;spacingRight=4;overflow=hidden;rotatable=0;points=[[0,0.5],[1,0.5]];portConstraint=eastwest;whiteSpace=wrap;html=1;" parent="_Q7EDYe8l2YMMLg8C3C3-79" vertex="1">
          <mxGeometry y="26" width="180" height="26" as="geometry" />
        </mxCell>
        <mxCell id="_Q7EDYe8l2YMMLg8C3C3-82" value="" style="line;strokeWidth=1;fillColor=none;align=left;verticalAlign=middle;spacingTop=-1;spacingLeft=3;spacingRight=3;rotatable=0;labelPosition=right;points=[];portConstraint=eastwest;strokeColor=inherit;" parent="_Q7EDYe8l2YMMLg8C3C3-79" vertex="1">
          <mxGeometry y="52" width="180" height="8" as="geometry" />
        </mxCell>
        <mxCell id="_Q7EDYe8l2YMMLg8C3C3-83" value="&lt;p style=&quot;border-color: var(--border-color); margin: 0px 0px 0px 4px;&quot;&gt;+ __init__()&lt;/p&gt;&lt;p style=&quot;border-color: var(--border-color); margin: 0px 0px 0px 4px;&quot;&gt;&lt;br&gt;&lt;/p&gt;" style="text;strokeColor=none;fillColor=none;align=left;verticalAlign=top;spacingLeft=4;spacingRight=4;overflow=hidden;rotatable=0;points=[[0,0.5],[1,0.5]];portConstraint=eastwest;whiteSpace=wrap;html=1;" parent="_Q7EDYe8l2YMMLg8C3C3-79" vertex="1">
          <mxGeometry y="60" width="180" height="30" as="geometry" />
        </mxCell>
        <mxCell id="_Q7EDYe8l2YMMLg8C3C3-84" value="&lt;p style=&quot;border-color: var(--border-color); margin: 0px 0px 0px 4px;&quot;&gt;&lt;span style=&quot;background-color: initial;&quot;&gt;+ set_attributes()&lt;/span&gt;&lt;br&gt;&lt;/p&gt;&lt;p style=&quot;border-color: var(--border-color); margin: 0px 0px 0px 4px;&quot;&gt;&lt;br&gt;&lt;/p&gt;" style="text;strokeColor=none;fillColor=none;align=left;verticalAlign=top;spacingLeft=4;spacingRight=4;overflow=hidden;rotatable=0;points=[[0,0.5],[1,0.5]];portConstraint=eastwest;whiteSpace=wrap;html=1;" parent="_Q7EDYe8l2YMMLg8C3C3-79" vertex="1">
          <mxGeometry y="90" width="180" height="30" as="geometry" />
        </mxCell>
        <mxCell id="_Q7EDYe8l2YMMLg8C3C3-90" value="&lt;p style=&quot;border-color: var(--border-color); margin: 0px 0px 0px 4px;&quot;&gt;+ add_agent_to_scheduler()&lt;/p&gt;" style="text;strokeColor=none;fillColor=none;align=left;verticalAlign=top;spacingLeft=4;spacingRight=4;overflow=hidden;rotatable=0;points=[[0,0.5],[1,0.5]];portConstraint=eastwest;whiteSpace=wrap;html=1;" parent="_Q7EDYe8l2YMMLg8C3C3-79" vertex="1">
          <mxGeometry y="120" width="180" height="20" as="geometry" />
        </mxCell>
        <mxCell id="_Q7EDYe8l2YMMLg8C3C3-91" value="&lt;p style=&quot;border-color: var(--border-color); margin: 0px 0px 0px 4px;&quot;&gt;&lt;span style=&quot;background-color: initial;&quot;&gt;+&amp;nbsp;step()&lt;/span&gt;&lt;br&gt;&lt;/p&gt;" style="text;strokeColor=none;fillColor=none;align=left;verticalAlign=top;spacingLeft=4;spacingRight=4;overflow=hidden;rotatable=0;points=[[0,0.5],[1,0.5]];portConstraint=eastwest;whiteSpace=wrap;html=1;" parent="_Q7EDYe8l2YMMLg8C3C3-79" vertex="1">
          <mxGeometry y="140" width="180" height="20" as="geometry" />
        </mxCell>
        <mxCell id="_Q7EDYe8l2YMMLg8C3C3-92" value="&lt;p style=&quot;margin:0px;margin-top:4px;text-align:center;&quot;&gt;&lt;i&gt;&amp;lt;&amp;lt;Interface&amp;gt;&amp;gt;&lt;/i&gt;&lt;br&gt;&lt;b&gt;OptimizationStrategy&lt;br&gt;&lt;/b&gt;&lt;/p&gt;&lt;hr size=&quot;1&quot;&gt;&lt;p style=&quot;margin:0px;margin-left:4px;&quot;&gt;+&amp;nbsp;&lt;br&gt;&lt;/p&gt;&lt;hr size=&quot;1&quot;&gt;&lt;p style=&quot;margin:0px;margin-left:4px;&quot;&gt;+ run_optimizer()&lt;br&gt;&lt;/p&gt;" style="verticalAlign=top;align=left;overflow=fill;fontSize=12;fontFamily=Helvetica;html=1;whiteSpace=wrap;" parent="1" vertex="1">
          <mxGeometry x="1719" y="726" width="200" height="103" as="geometry" />
        </mxCell>
        <mxCell id="_Q7EDYe8l2YMMLg8C3C3-93" value="&lt;p style=&quot;margin:0px;margin-top:4px;text-align:center;&quot;&gt;&lt;i&gt;&amp;lt;&amp;lt;Interface&amp;gt;&amp;gt;&lt;/i&gt;&lt;br&gt;&lt;b&gt;EquityHandler&lt;br&gt;&lt;/b&gt;&lt;/p&gt;&lt;hr size=&quot;1&quot;&gt;&lt;p style=&quot;margin:0px;margin-left:4px;&quot;&gt;+&amp;nbsp;&lt;br&gt;&lt;/p&gt;&lt;hr size=&quot;1&quot;&gt;&lt;p style=&quot;margin:0px;margin-left:4px;&quot;&gt;+ run_equity()&lt;br&gt;&lt;/p&gt;" style="verticalAlign=top;align=left;overflow=fill;fontSize=12;fontFamily=Helvetica;html=1;whiteSpace=wrap;" parent="1" vertex="1">
          <mxGeometry x="1719" y="926" width="200" height="103" as="geometry" />
        </mxCell>
        <mxCell id="_Q7EDYe8l2YMMLg8C3C3-95" value="&lt;p style=&quot;margin:0px;margin-top:4px;text-align:center;&quot;&gt;&lt;i&gt;&amp;lt;&amp;lt;Interface&amp;gt;&amp;gt;&lt;/i&gt;&lt;br&gt;&lt;b&gt;RegulationStrategy&lt;br&gt;&lt;/b&gt;&lt;/p&gt;&lt;hr size=&quot;1&quot;&gt;&lt;p style=&quot;margin:0px;margin-left:4px;&quot;&gt;+&amp;nbsp;&lt;br&gt;&lt;/p&gt;&lt;hr size=&quot;1&quot;&gt;&lt;p style=&quot;margin:0px;margin-left:4px;&quot;&gt;+ regulation()&lt;br&gt;&lt;/p&gt;" style="verticalAlign=top;align=left;overflow=fill;fontSize=12;fontFamily=Helvetica;html=1;whiteSpace=wrap;" parent="1" vertex="1">
          <mxGeometry x="2280" y="124" width="200" height="116" as="geometry" />
        </mxCell>
        <mxCell id="_Q7EDYe8l2YMMLg8C3C3-96" value="PriorityRandomAssignmentStrategy" style="swimlane;fontStyle=1;align=center;verticalAlign=top;childLayout=stackLayout;horizontal=1;startSize=26;horizontalStack=0;resizeParent=1;resizeParentMax=0;resizeLast=0;collapsible=1;marginBottom=0;whiteSpace=wrap;html=1;" parent="1" vertex="1">
          <mxGeometry x="440" y="760" width="239" height="86" as="geometry" />
        </mxCell>
        <mxCell id="_Q7EDYe8l2YMMLg8C3C3-97" value="+&amp;nbsp;" style="text;strokeColor=none;fillColor=none;align=left;verticalAlign=top;spacingLeft=4;spacingRight=4;overflow=hidden;rotatable=0;points=[[0,0.5],[1,0.5]];portConstraint=eastwest;whiteSpace=wrap;html=1;" parent="_Q7EDYe8l2YMMLg8C3C3-96" vertex="1">
          <mxGeometry y="26" width="239" height="26" as="geometry" />
        </mxCell>
        <mxCell id="_Q7EDYe8l2YMMLg8C3C3-98" value="" style="line;strokeWidth=1;fillColor=none;align=left;verticalAlign=middle;spacingTop=-1;spacingLeft=3;spacingRight=3;rotatable=0;labelPosition=right;points=[];portConstraint=eastwest;strokeColor=inherit;" parent="_Q7EDYe8l2YMMLg8C3C3-96" vertex="1">
          <mxGeometry y="52" width="239" height="8" as="geometry" />
        </mxCell>
        <mxCell id="_Q7EDYe8l2YMMLg8C3C3-99" value="+ assign_priority()" style="text;strokeColor=none;fillColor=none;align=left;verticalAlign=top;spacingLeft=4;spacingRight=4;overflow=hidden;rotatable=0;points=[[0,0.5],[1,0.5]];portConstraint=eastwest;whiteSpace=wrap;html=1;" parent="_Q7EDYe8l2YMMLg8C3C3-96" vertex="1">
          <mxGeometry y="60" width="239" height="26" as="geometry" />
        </mxCell>
        <mxCell id="_Q7EDYe8l2YMMLg8C3C3-100" value="DesiredTimeRandomAssignmentStrategy" style="swimlane;fontStyle=1;align=center;verticalAlign=top;childLayout=stackLayout;horizontal=1;startSize=26;horizontalStack=0;resizeParent=1;resizeParentMax=0;resizeLast=0;collapsible=1;marginBottom=0;whiteSpace=wrap;html=1;" parent="1" vertex="1">
          <mxGeometry x="440" y="924.5" width="250" height="86" as="geometry" />
        </mxCell>
        <mxCell id="_Q7EDYe8l2YMMLg8C3C3-101" value="+&amp;nbsp;" style="text;strokeColor=none;fillColor=none;align=left;verticalAlign=top;spacingLeft=4;spacingRight=4;overflow=hidden;rotatable=0;points=[[0,0.5],[1,0.5]];portConstraint=eastwest;whiteSpace=wrap;html=1;" parent="_Q7EDYe8l2YMMLg8C3C3-100" vertex="1">
          <mxGeometry y="26" width="250" height="26" as="geometry" />
        </mxCell>
        <mxCell id="_Q7EDYe8l2YMMLg8C3C3-102" value="" style="line;strokeWidth=1;fillColor=none;align=left;verticalAlign=middle;spacingTop=-1;spacingLeft=3;spacingRight=3;rotatable=0;labelPosition=right;points=[];portConstraint=eastwest;strokeColor=inherit;" parent="_Q7EDYe8l2YMMLg8C3C3-100" vertex="1">
          <mxGeometry y="52" width="250" height="8" as="geometry" />
        </mxCell>
        <mxCell id="_Q7EDYe8l2YMMLg8C3C3-103" value="+ assign_desired_time()" style="text;strokeColor=none;fillColor=none;align=left;verticalAlign=top;spacingLeft=4;spacingRight=4;overflow=hidden;rotatable=0;points=[[0,0.5],[1,0.5]];portConstraint=eastwest;whiteSpace=wrap;html=1;" parent="_Q7EDYe8l2YMMLg8C3C3-100" vertex="1">
          <mxGeometry y="60" width="250" height="26" as="geometry" />
        </mxCell>
        <mxCell id="_Q7EDYe8l2YMMLg8C3C3-104" value="&lt;p style=&quot;margin:0px;margin-top:4px;text-align:center;&quot;&gt;&lt;i&gt;&amp;lt;&amp;lt;Interface&amp;gt;&amp;gt;&lt;/i&gt;&lt;br&gt;&lt;b&gt;DesiredTimeStrategy&lt;/b&gt;&lt;br&gt;&lt;/p&gt;&lt;hr size=&quot;1&quot;&gt;&lt;p style=&quot;margin:0px;margin-left:4px;&quot;&gt;+&amp;nbsp;&lt;br&gt;&lt;/p&gt;&lt;hr size=&quot;1&quot;&gt;&lt;p style=&quot;margin:0px;margin-left:4px;&quot;&gt;+ assign_desired_time()&lt;br&gt;&lt;/p&gt;" style="verticalAlign=top;align=left;overflow=fill;fontSize=12;fontFamily=Helvetica;html=1;whiteSpace=wrap;" parent="1" vertex="1">
          <mxGeometry x="800" y="1040" width="200" height="103" as="geometry" />
        </mxCell>
        <mxCell id="_Q7EDYe8l2YMMLg8C3C3-105" value="ScheduledTimeAssignmentStrategy" style="swimlane;fontStyle=1;align=center;verticalAlign=top;childLayout=stackLayout;horizontal=1;startSize=26;horizontalStack=0;resizeParent=1;resizeParentMax=0;resizeLast=0;collapsible=1;marginBottom=0;whiteSpace=wrap;html=1;" parent="1" vertex="1">
          <mxGeometry x="440" y="1040" width="250" height="86" as="geometry" />
        </mxCell>
        <mxCell id="_Q7EDYe8l2YMMLg8C3C3-106" value="+&amp;nbsp;" style="text;strokeColor=none;fillColor=none;align=left;verticalAlign=top;spacingLeft=4;spacingRight=4;overflow=hidden;rotatable=0;points=[[0,0.5],[1,0.5]];portConstraint=eastwest;whiteSpace=wrap;html=1;" parent="_Q7EDYe8l2YMMLg8C3C3-105" vertex="1">
          <mxGeometry y="26" width="250" height="26" as="geometry" />
        </mxCell>
        <mxCell id="_Q7EDYe8l2YMMLg8C3C3-107" value="" style="line;strokeWidth=1;fillColor=none;align=left;verticalAlign=middle;spacingTop=-1;spacingLeft=3;spacingRight=3;rotatable=0;labelPosition=right;points=[];portConstraint=eastwest;strokeColor=inherit;" parent="_Q7EDYe8l2YMMLg8C3C3-105" vertex="1">
          <mxGeometry y="52" width="250" height="8" as="geometry" />
        </mxCell>
        <mxCell id="_Q7EDYe8l2YMMLg8C3C3-108" value="+ assign_desired_time()" style="text;strokeColor=none;fillColor=none;align=left;verticalAlign=top;spacingLeft=4;spacingRight=4;overflow=hidden;rotatable=0;points=[[0,0.5],[1,0.5]];portConstraint=eastwest;whiteSpace=wrap;html=1;" parent="_Q7EDYe8l2YMMLg8C3C3-105" vertex="1">
          <mxGeometry y="60" width="250" height="26" as="geometry" />
        </mxCell>
        <mxCell id="_Q7EDYe8l2YMMLg8C3C3-109" value="MiddleAssignmentStrategy" style="swimlane;fontStyle=1;align=center;verticalAlign=top;childLayout=stackLayout;horizontal=1;startSize=26;horizontalStack=0;resizeParent=1;resizeParentMax=0;resizeLast=0;collapsible=1;marginBottom=0;whiteSpace=wrap;html=1;" parent="1" vertex="1">
          <mxGeometry x="440" y="1160" width="250" height="86" as="geometry" />
        </mxCell>
        <mxCell id="_Q7EDYe8l2YMMLg8C3C3-110" value="+&amp;nbsp;" style="text;strokeColor=none;fillColor=none;align=left;verticalAlign=top;spacingLeft=4;spacingRight=4;overflow=hidden;rotatable=0;points=[[0,0.5],[1,0.5]];portConstraint=eastwest;whiteSpace=wrap;html=1;" parent="_Q7EDYe8l2YMMLg8C3C3-109" vertex="1">
          <mxGeometry y="26" width="250" height="26" as="geometry" />
        </mxCell>
        <mxCell id="_Q7EDYe8l2YMMLg8C3C3-111" value="" style="line;strokeWidth=1;fillColor=none;align=left;verticalAlign=middle;spacingTop=-1;spacingLeft=3;spacingRight=3;rotatable=0;labelPosition=right;points=[];portConstraint=eastwest;strokeColor=inherit;" parent="_Q7EDYe8l2YMMLg8C3C3-109" vertex="1">
          <mxGeometry y="52" width="250" height="8" as="geometry" />
        </mxCell>
        <mxCell id="_Q7EDYe8l2YMMLg8C3C3-112" value="+ assign_desired_time()" style="text;strokeColor=none;fillColor=none;align=left;verticalAlign=top;spacingLeft=4;spacingRight=4;overflow=hidden;rotatable=0;points=[[0,0.5],[1,0.5]];portConstraint=eastwest;whiteSpace=wrap;html=1;" parent="_Q7EDYe8l2YMMLg8C3C3-109" vertex="1">
          <mxGeometry y="60" width="250" height="26" as="geometry" />
        </mxCell>
        <mxCell id="_Q7EDYe8l2YMMLg8C3C3-113" value="MarginsRandomAssignmentStrategy" style="swimlane;fontStyle=1;align=center;verticalAlign=top;childLayout=stackLayout;horizontal=1;startSize=26;horizontalStack=0;resizeParent=1;resizeParentMax=0;resizeLast=0;collapsible=1;marginBottom=0;whiteSpace=wrap;html=1;" parent="1" vertex="1">
          <mxGeometry x="440" y="1320" width="250" height="86" as="geometry" />
        </mxCell>
        <mxCell id="_Q7EDYe8l2YMMLg8C3C3-114" value="+&amp;nbsp;" style="text;strokeColor=none;fillColor=none;align=left;verticalAlign=top;spacingLeft=4;spacingRight=4;overflow=hidden;rotatable=0;points=[[0,0.5],[1,0.5]];portConstraint=eastwest;whiteSpace=wrap;html=1;" parent="_Q7EDYe8l2YMMLg8C3C3-113" vertex="1">
          <mxGeometry y="26" width="250" height="26" as="geometry" />
        </mxCell>
        <mxCell id="_Q7EDYe8l2YMMLg8C3C3-115" value="" style="line;strokeWidth=1;fillColor=none;align=left;verticalAlign=middle;spacingTop=-1;spacingLeft=3;spacingRight=3;rotatable=0;labelPosition=right;points=[];portConstraint=eastwest;strokeColor=inherit;" parent="_Q7EDYe8l2YMMLg8C3C3-113" vertex="1">
          <mxGeometry y="52" width="250" height="8" as="geometry" />
        </mxCell>
        <mxCell id="_Q7EDYe8l2YMMLg8C3C3-116" value="+ assign_margins()" style="text;strokeColor=none;fillColor=none;align=left;verticalAlign=top;spacingLeft=4;spacingRight=4;overflow=hidden;rotatable=0;points=[[0,0.5],[1,0.5]];portConstraint=eastwest;whiteSpace=wrap;html=1;" parent="_Q7EDYe8l2YMMLg8C3C3-113" vertex="1">
          <mxGeometry y="60" width="250" height="26" as="geometry" />
        </mxCell>
        <mxCell id="_Q7EDYe8l2YMMLg8C3C3-117" value="&lt;p style=&quot;margin:0px;margin-top:4px;text-align:center;&quot;&gt;&lt;i&gt;&amp;lt;&amp;lt;Interface&amp;gt;&amp;gt;&lt;/i&gt;&lt;br&gt;&lt;b&gt;AssignMarginsStrategy&lt;/b&gt;&lt;br&gt;&lt;/p&gt;&lt;hr size=&quot;1&quot;&gt;&lt;p style=&quot;margin:0px;margin-left:4px;&quot;&gt;+&amp;nbsp;&lt;br&gt;&lt;/p&gt;&lt;hr size=&quot;1&quot;&gt;&lt;p style=&quot;margin:0px;margin-left:4px;&quot;&gt;+ assign_margins()&lt;br&gt;&lt;/p&gt;" style="verticalAlign=top;align=left;overflow=fill;fontSize=12;fontFamily=Helvetica;html=1;whiteSpace=wrap;" parent="1" vertex="1">
          <mxGeometry x="800" y="1280" width="200" height="103" as="geometry" />
        </mxCell>
        <mxCell id="_Q7EDYe8l2YMMLg8C3C3-118" value="&lt;i style=&quot;border-color: var(--border-color);&quot;&gt;PlatformAgent&lt;/i&gt;" style="swimlane;fontStyle=1;align=center;verticalAlign=top;childLayout=stackLayout;horizontal=1;startSize=26;horizontalStack=0;resizeParent=1;resizeParentMax=0;resizeLast=0;collapsible=1;marginBottom=0;whiteSpace=wrap;html=1;" parent="1" vertex="1">
          <mxGeometry x="1520" y="446" width="200" height="150" as="geometry" />
        </mxCell>
        <mxCell id="_Q7EDYe8l2YMMLg8C3C3-119" value="+&amp;nbsp;" style="text;strokeColor=none;fillColor=none;align=left;verticalAlign=top;spacingLeft=4;spacingRight=4;overflow=hidden;rotatable=0;points=[[0,0.5],[1,0.5]];portConstraint=eastwest;whiteSpace=wrap;html=1;" parent="_Q7EDYe8l2YMMLg8C3C3-118" vertex="1">
          <mxGeometry y="26" width="200" height="26" as="geometry" />
        </mxCell>
        <mxCell id="_Q7EDYe8l2YMMLg8C3C3-120" value="" style="line;strokeWidth=1;fillColor=none;align=left;verticalAlign=middle;spacingTop=-1;spacingLeft=3;spacingRight=3;rotatable=0;labelPosition=right;points=[];portConstraint=eastwest;strokeColor=inherit;" parent="_Q7EDYe8l2YMMLg8C3C3-118" vertex="1">
          <mxGeometry y="52" width="200" height="8" as="geometry" />
        </mxCell>
        <mxCell id="_Q7EDYe8l2YMMLg8C3C3-121" value="&lt;p style=&quot;border-color: var(--border-color); margin: 0px 0px 0px 4px;&quot;&gt;+ __init__()&lt;/p&gt;&lt;p style=&quot;border-color: var(--border-color); margin: 0px 0px 0px 4px;&quot;&gt;&lt;br&gt;&lt;/p&gt;" style="text;strokeColor=none;fillColor=none;align=left;verticalAlign=top;spacingLeft=4;spacingRight=4;overflow=hidden;rotatable=0;points=[[0,0.5],[1,0.5]];portConstraint=eastwest;whiteSpace=wrap;html=1;" parent="_Q7EDYe8l2YMMLg8C3C3-118" vertex="1">
          <mxGeometry y="60" width="200" height="30" as="geometry" />
        </mxCell>
        <mxCell id="_Q7EDYe8l2YMMLg8C3C3-122" value="&lt;p style=&quot;border-color: var(--border-color); margin: 0px 0px 0px 4px;&quot;&gt;+ Convert_to_weight_map()&lt;/p&gt;&lt;p style=&quot;border-color: var(--border-color); margin: 0px 0px 0px 4px;&quot;&gt;&lt;br&gt;&lt;/p&gt;" style="text;strokeColor=none;fillColor=none;align=left;verticalAlign=top;spacingLeft=4;spacingRight=4;overflow=hidden;rotatable=0;points=[[0,0.5],[1,0.5]];portConstraint=eastwest;whiteSpace=wrap;html=1;" parent="_Q7EDYe8l2YMMLg8C3C3-118" vertex="1">
          <mxGeometry y="90" width="200" height="30" as="geometry" />
        </mxCell>
        <mxCell id="_Q7EDYe8l2YMMLg8C3C3-123" value="&lt;p style=&quot;border-color: var(--border-color); margin: 0px 0px 0px 4px;&quot;&gt;+ step()&lt;/p&gt;" style="text;strokeColor=none;fillColor=none;align=left;verticalAlign=top;spacingLeft=4;spacingRight=4;overflow=hidden;rotatable=0;points=[[0,0.5],[1,0.5]];portConstraint=eastwest;whiteSpace=wrap;html=1;" parent="_Q7EDYe8l2YMMLg8C3C3-118" vertex="1">
          <mxGeometry y="120" width="200" height="30" as="geometry" />
        </mxCell>
        <mxCell id="_Q7EDYe8l2YMMLg8C3C3-133" value="" style="endArrow=none;endFill=0;html=1;edgeStyle=orthogonalEdgeStyle;align=left;verticalAlign=top;rounded=0;entryX=0.002;entryY=0.58;entryDx=0;entryDy=0;entryPerimeter=0;exitX=0.999;exitY=0.32;exitDx=0;exitDy=0;exitPerimeter=0;" parent="1" source="_Q7EDYe8l2YMMLg8C3C3-60" target="_Q7EDYe8l2YMMLg8C3C3-95" edge="1">
          <mxGeometry x="-1" relative="1" as="geometry">
            <mxPoint x="2190" y="197" as="sourcePoint" />
            <mxPoint x="2290" y="200" as="targetPoint" />
          </mxGeometry>
        </mxCell>
        <mxCell id="_Q7EDYe8l2YMMLg8C3C3-134" value="1" style="edgeLabel;resizable=0;html=1;align=left;verticalAlign=bottom;" parent="_Q7EDYe8l2YMMLg8C3C3-133" connectable="0" vertex="1">
          <mxGeometry x="-1" relative="1" as="geometry">
            <mxPoint x="78" y="-9" as="offset" />
          </mxGeometry>
        </mxCell>
        <mxCell id="_Q7EDYe8l2YMMLg8C3C3-135" value="1" style="edgeLabel;resizable=0;html=1;align=left;verticalAlign=bottom;" parent="1" connectable="0" vertex="1">
          <mxGeometry x="2200" y="182.0039999999999" as="geometry" />
        </mxCell>
        <mxCell id="_Q7EDYe8l2YMMLg8C3C3-139" value="" style="endArrow=none;endFill=0;html=1;edgeStyle=orthogonalEdgeStyle;align=left;verticalAlign=top;rounded=0;exitX=0.338;exitY=1.102;exitDx=0;exitDy=0;exitPerimeter=0;" parent="1" source="Hdpylny2_1FY871QO0we-10" edge="1">
          <mxGeometry x="-1" relative="1" as="geometry">
            <mxPoint x="2013" y="-24" as="sourcePoint" />
            <mxPoint x="2014" y="130" as="targetPoint" />
            <Array as="points">
              <mxPoint x="1795" y="70" />
              <mxPoint x="2014" y="70" />
            </Array>
          </mxGeometry>
        </mxCell>
        <mxCell id="_Q7EDYe8l2YMMLg8C3C3-140" value="&lt;font style=&quot;font-size: 14px;&quot;&gt;*&lt;/font&gt;" style="edgeLabel;resizable=0;html=1;align=left;verticalAlign=bottom;" parent="_Q7EDYe8l2YMMLg8C3C3-139" connectable="0" vertex="1">
          <mxGeometry x="-1" relative="1" as="geometry">
            <mxPoint x="12" y="34" as="offset" />
          </mxGeometry>
        </mxCell>
        <mxCell id="_Q7EDYe8l2YMMLg8C3C3-141" value="0, 1" style="edgeLabel;resizable=0;html=1;align=left;verticalAlign=bottom;" parent="1" connectable="0" vertex="1">
          <mxGeometry x="2035" y="120" as="geometry" />
        </mxCell>
        <mxCell id="_Q7EDYe8l2YMMLg8C3C3-142" value="" style="endArrow=none;endFill=0;html=1;edgeStyle=orthogonalEdgeStyle;align=left;verticalAlign=top;rounded=0;exitX=0;exitY=0.5;exitDx=0;exitDy=0;entryX=1.008;entryY=0.633;entryDx=0;entryDy=0;entryPerimeter=0;" parent="1" source="Hdpylny2_1FY871QO0we-6" target="_Q7EDYe8l2YMMLg8C3C3-36" edge="1">
          <mxGeometry x="-1" relative="1" as="geometry">
            <mxPoint x="1920.4" y="-119.66399999999999" as="sourcePoint" />
            <mxPoint x="1580" y="202" as="targetPoint" />
            <Array as="points">
              <mxPoint x="1332" y="-90" />
            </Array>
          </mxGeometry>
        </mxCell>
        <mxCell id="_Q7EDYe8l2YMMLg8C3C3-143" value="&lt;font style=&quot;font-size: 14px;&quot;&gt;*&lt;/font&gt;" style="edgeLabel;resizable=0;html=1;align=left;verticalAlign=bottom;" parent="_Q7EDYe8l2YMMLg8C3C3-142" connectable="0" vertex="1">
          <mxGeometry x="-1" relative="1" as="geometry">
            <mxPoint x="7" y="22" as="offset" />
          </mxGeometry>
        </mxCell>
        <mxCell id="_Q7EDYe8l2YMMLg8C3C3-145" value="&lt;font style=&quot;font-size: 14px;&quot;&gt;1&lt;/font&gt;" style="edgeLabel;resizable=0;html=1;align=left;verticalAlign=bottom;" parent="1" connectable="0" vertex="1">
          <mxGeometry x="1340" y="-129.99999999999977" as="geometry" />
        </mxCell>
        <mxCell id="_Q7EDYe8l2YMMLg8C3C3-146" value="" style="endArrow=none;endFill=0;html=1;edgeStyle=orthogonalEdgeStyle;align=left;verticalAlign=top;rounded=0;entryX=0.526;entryY=1.013;entryDx=0;entryDy=0;entryPerimeter=0;" parent="1" target="_Q7EDYe8l2YMMLg8C3C3-39" edge="1">
          <mxGeometry x="-1" relative="1" as="geometry">
            <mxPoint x="1235" y="310" as="sourcePoint" />
            <mxPoint x="1226" y="-50" as="targetPoint" />
          </mxGeometry>
        </mxCell>
        <mxCell id="_Q7EDYe8l2YMMLg8C3C3-147" value="1" style="edgeLabel;resizable=0;html=1;align=left;verticalAlign=bottom;" parent="_Q7EDYe8l2YMMLg8C3C3-146" connectable="0" vertex="1">
          <mxGeometry x="-1" relative="1" as="geometry">
            <mxPoint x="14" y="-4" as="offset" />
          </mxGeometry>
        </mxCell>
        <mxCell id="_Q7EDYe8l2YMMLg8C3C3-148" value="&lt;font style=&quot;font-size: 14px;&quot;&gt;*&lt;/font&gt;" style="edgeLabel;resizable=0;html=1;align=left;verticalAlign=bottom;" parent="1" connectable="0" vertex="1">
          <mxGeometry x="1250" y="30.000000000000227" as="geometry" />
        </mxCell>
        <mxCell id="_Q7EDYe8l2YMMLg8C3C3-149" value="" style="endArrow=none;endFill=0;html=1;edgeStyle=orthogonalEdgeStyle;align=left;verticalAlign=top;rounded=0;entryX=-0.014;entryY=0.623;entryDx=0;entryDy=0;entryPerimeter=0;exitX=0.5;exitY=1.077;exitDx=0;exitDy=0;exitPerimeter=0;" parent="1" source="_Q7EDYe8l2YMMLg8C3C3-123" target="_Q7EDYe8l2YMMLg8C3C3-93" edge="1">
          <mxGeometry x="-1" relative="1" as="geometry">
            <mxPoint x="1620" y="606" as="sourcePoint" />
            <mxPoint x="1660" y="686" as="targetPoint" />
            <Array as="points">
              <mxPoint x="1620" y="990" />
            </Array>
          </mxGeometry>
        </mxCell>
        <mxCell id="_Q7EDYe8l2YMMLg8C3C3-150" value="1" style="edgeLabel;resizable=0;html=1;align=left;verticalAlign=bottom;" parent="_Q7EDYe8l2YMMLg8C3C3-149" connectable="0" vertex="1">
          <mxGeometry x="-1" relative="1" as="geometry">
            <mxPoint x="10" y="29" as="offset" />
          </mxGeometry>
        </mxCell>
        <mxCell id="_Q7EDYe8l2YMMLg8C3C3-151" value="1" style="edgeLabel;resizable=0;html=1;align=left;verticalAlign=bottom;" parent="1" connectable="0" vertex="1">
          <mxGeometry x="1690" y="977.5" as="geometry" />
        </mxCell>
        <mxCell id="_Q7EDYe8l2YMMLg8C3C3-152" value="" style="endArrow=none;endFill=0;html=1;edgeStyle=orthogonalEdgeStyle;align=left;verticalAlign=top;rounded=0;entryX=-0.003;entryY=0.511;entryDx=0;entryDy=0;entryPerimeter=0;" parent="1" target="_Q7EDYe8l2YMMLg8C3C3-92" edge="1">
          <mxGeometry x="-1" relative="1" as="geometry">
            <mxPoint x="1620" y="778" as="sourcePoint" />
            <mxPoint x="1700" y="769" as="targetPoint" />
          </mxGeometry>
        </mxCell>
        <mxCell id="_Q7EDYe8l2YMMLg8C3C3-153" value="1" style="edgeLabel;resizable=0;html=1;align=left;verticalAlign=bottom;" parent="_Q7EDYe8l2YMMLg8C3C3-152" connectable="0" vertex="1">
          <mxGeometry x="-1" relative="1" as="geometry">
            <mxPoint x="70" y="-9" as="offset" />
          </mxGeometry>
        </mxCell>
        <mxCell id="_Q7EDYe8l2YMMLg8C3C3-154" value="" style="endArrow=none;endFill=0;html=1;edgeStyle=orthogonalEdgeStyle;align=left;verticalAlign=top;rounded=0;entryX=-0.01;entryY=0.79;entryDx=0;entryDy=0;entryPerimeter=0;" parent="1" source="_Q7EDYe8l2YMMLg8C3C3-84" target="_Q7EDYe8l2YMMLg8C3C3-60" edge="1">
          <mxGeometry x="-1" relative="1" as="geometry">
            <mxPoint x="1700.3600000000001" y="246.91000000000008" as="sourcePoint" />
            <mxPoint x="1930" y="320" as="targetPoint" />
          </mxGeometry>
        </mxCell>
        <mxCell id="_Q7EDYe8l2YMMLg8C3C3-155" value="1" style="edgeLabel;resizable=0;html=1;align=left;verticalAlign=bottom;" parent="_Q7EDYe8l2YMMLg8C3C3-154" connectable="0" vertex="1">
          <mxGeometry x="-1" relative="1" as="geometry">
            <mxPoint x="10" y="-2" as="offset" />
          </mxGeometry>
        </mxCell>
        <mxCell id="_Q7EDYe8l2YMMLg8C3C3-156" value="&lt;font style=&quot;font-size: 14px;&quot;&gt;*&lt;/font&gt;" style="edgeLabel;resizable=0;html=1;align=left;verticalAlign=bottom;" parent="1" connectable="0" vertex="1">
          <mxGeometry x="1870" y="246.00000000000023" as="geometry" />
        </mxCell>
        <mxCell id="_Q7EDYe8l2YMMLg8C3C3-157" value="" style="endArrow=none;endFill=0;html=1;edgeStyle=orthogonalEdgeStyle;align=left;verticalAlign=top;rounded=0;exitX=0.452;exitY=0.974;exitDx=0;exitDy=0;exitPerimeter=0;entryX=0.405;entryY=0.014;entryDx=0;entryDy=0;entryPerimeter=0;" parent="1" source="_Q7EDYe8l2YMMLg8C3C3-91" target="_Q7EDYe8l2YMMLg8C3C3-118" edge="1">
          <mxGeometry x="-1" relative="1" as="geometry">
            <mxPoint x="1560" y="490" as="sourcePoint" />
            <mxPoint x="1720" y="490" as="targetPoint" />
          </mxGeometry>
        </mxCell>
        <mxCell id="_Q7EDYe8l2YMMLg8C3C3-158" value="1" style="edgeLabel;resizable=0;html=1;align=left;verticalAlign=bottom;" parent="_Q7EDYe8l2YMMLg8C3C3-157" connectable="0" vertex="1">
          <mxGeometry x="-1" relative="1" as="geometry">
            <mxPoint x="9" y="21" as="offset" />
          </mxGeometry>
        </mxCell>
        <mxCell id="_Q7EDYe8l2YMMLg8C3C3-159" value="1" style="edgeLabel;resizable=0;html=1;align=left;verticalAlign=bottom;" parent="1" connectable="0" vertex="1">
          <mxGeometry x="1610.0000000000007" y="436" as="geometry" />
        </mxCell>
        <mxCell id="_Q7EDYe8l2YMMLg8C3C3-160" value="" style="endArrow=none;endFill=0;html=1;edgeStyle=orthogonalEdgeStyle;align=left;verticalAlign=top;rounded=0;entryX=0.991;entryY=0.607;entryDx=0;entryDy=0;entryPerimeter=0;" parent="1" target="_Q7EDYe8l2YMMLg8C3C3-104" edge="1">
          <mxGeometry x="-1" relative="1" as="geometry">
            <mxPoint x="1240" y="810" as="sourcePoint" />
            <mxPoint x="1446" y="1050" as="targetPoint" />
            <Array as="points">
              <mxPoint x="1240" y="1103" />
            </Array>
          </mxGeometry>
        </mxCell>
        <mxCell id="_Q7EDYe8l2YMMLg8C3C3-161" value="1" style="edgeLabel;resizable=0;html=1;align=left;verticalAlign=bottom;" parent="1" connectable="0" vertex="1">
          <mxGeometry x="1010" y="1091.5" as="geometry" />
        </mxCell>
        <mxCell id="_Q7EDYe8l2YMMLg8C3C3-162" value="" style="endArrow=block;dashed=1;endFill=0;endSize=12;html=1;rounded=0;exitX=0.993;exitY=0.156;exitDx=0;exitDy=0;exitPerimeter=0;entryX=0;entryY=0.5;entryDx=0;entryDy=0;" parent="1" edge="1">
          <mxGeometry width="160" relative="1" as="geometry">
            <mxPoint x="690" y="1351.9159999999997" as="sourcePoint" />
            <mxPoint x="801.75" y="1350" as="targetPoint" />
          </mxGeometry>
        </mxCell>
        <mxCell id="_Q7EDYe8l2YMMLg8C3C3-163" value="" style="endArrow=block;dashed=1;endFill=0;endSize=12;html=1;rounded=0;exitX=0.993;exitY=0.156;exitDx=0;exitDy=0;exitPerimeter=0;entryX=0.002;entryY=0.595;entryDx=0;entryDy=0;entryPerimeter=0;" parent="1" target="_Q7EDYe8l2YMMLg8C3C3-104" edge="1">
          <mxGeometry width="160" relative="1" as="geometry">
            <mxPoint x="688.25" y="1203.9559999999997" as="sourcePoint" />
            <mxPoint x="800" y="1202.04" as="targetPoint" />
            <Array as="points">
              <mxPoint x="750" y="1204" />
              <mxPoint x="750" y="1101" />
            </Array>
          </mxGeometry>
        </mxCell>
        <mxCell id="_Q7EDYe8l2YMMLg8C3C3-164" value="" style="endArrow=none;dashed=1;endFill=0;endSize=12;html=1;rounded=0;entryX=1;entryY=0.5;entryDx=0;entryDy=0;" parent="1" target="_Q7EDYe8l2YMMLg8C3C3-101" edge="1">
          <mxGeometry width="160" relative="1" as="geometry">
            <mxPoint x="750" y="1100" as="sourcePoint" />
            <mxPoint x="849.75" y="937" as="targetPoint" />
            <Array as="points">
              <mxPoint x="750" y="1040" />
              <mxPoint x="750" y="963" />
            </Array>
          </mxGeometry>
        </mxCell>
        <mxCell id="_Q7EDYe8l2YMMLg8C3C3-165" value="" style="endArrow=none;dashed=1;endFill=0;endSize=12;html=1;rounded=0;entryX=1.003;entryY=0.925;entryDx=0;entryDy=0;entryPerimeter=0;" parent="1" target="_Q7EDYe8l2YMMLg8C3C3-106" edge="1">
          <mxGeometry width="160" relative="1" as="geometry">
            <mxPoint x="750" y="1090" as="sourcePoint" />
            <mxPoint x="700" y="973" as="targetPoint" />
            <Array as="points">
              <mxPoint x="710" y="1090" />
            </Array>
          </mxGeometry>
        </mxCell>
        <mxCell id="_Q7EDYe8l2YMMLg8C3C3-166" value="" style="endArrow=none;endFill=0;html=1;edgeStyle=orthogonalEdgeStyle;align=left;verticalAlign=top;rounded=0;exitX=0;exitY=0.5;exitDx=0;exitDy=0;" parent="1" source="_Q7EDYe8l2YMMLg8C3C3-81" edge="1">
          <mxGeometry x="-1" relative="1" as="geometry">
            <mxPoint x="1710" y="152" as="sourcePoint" />
            <mxPoint x="1050" y="80" as="targetPoint" />
            <Array as="points">
              <mxPoint x="1340" y="145" />
              <mxPoint x="1340" y="80" />
              <mxPoint x="1050" y="80" />
            </Array>
          </mxGeometry>
        </mxCell>
        <mxCell id="_Q7EDYe8l2YMMLg8C3C3-168" value="&lt;font style=&quot;font-size: 14px;&quot;&gt;1&lt;/font&gt;" style="edgeLabel;resizable=0;html=1;align=left;verticalAlign=bottom;" parent="1" connectable="0" vertex="1">
          <mxGeometry x="1070" y="73.00000000000023" as="geometry" />
        </mxCell>
        <mxCell id="_Q7EDYe8l2YMMLg8C3C3-169" value="&lt;font style=&quot;font-size: 14px;&quot;&gt;1&lt;/font&gt;" style="edgeLabel;resizable=0;html=1;align=left;verticalAlign=bottom;" parent="1" connectable="0" vertex="1">
          <mxGeometry x="1490" y="130.00000000000023" as="geometry" />
        </mxCell>
        <mxCell id="_Q7EDYe8l2YMMLg8C3C3-170" value="" style="endArrow=none;endFill=0;html=1;edgeStyle=orthogonalEdgeStyle;align=left;verticalAlign=top;rounded=0;exitX=0;exitY=0.5;exitDx=0;exitDy=0;entryX=1.013;entryY=-0.118;entryDx=0;entryDy=0;entryPerimeter=0;" parent="1" source="_Q7EDYe8l2YMMLg8C3C3-90" target="_Q7EDYe8l2YMMLg8C3C3-20" edge="1">
          <mxGeometry x="-1" relative="1" as="geometry">
            <mxPoint x="1517.8400000000001" y="247.77999999999997" as="sourcePoint" />
            <mxPoint x="1887" y="533" as="targetPoint" />
          </mxGeometry>
        </mxCell>
        <mxCell id="_Q7EDYe8l2YMMLg8C3C3-172" value="1" style="edgeLabel;resizable=0;html=1;align=left;verticalAlign=bottom;" parent="1" connectable="0" vertex="1">
          <mxGeometry x="1719.9999999999998" y="215.99999999999986" as="geometry">
            <mxPoint x="-224" y="-9" as="offset" />
          </mxGeometry>
        </mxCell>
        <mxCell id="_Q7EDYe8l2YMMLg8C3C3-173" value="&lt;font style=&quot;font-size: 14px;&quot;&gt;*&lt;/font&gt;" style="edgeLabel;resizable=0;html=1;align=left;verticalAlign=bottom;" parent="1" connectable="0" vertex="1">
          <mxGeometry x="1380" y="392.0000000000002" as="geometry" />
        </mxCell>
        <mxCell id="_Q7EDYe8l2YMMLg8C3C3-174" value="Extends" style="endArrow=block;endSize=16;endFill=0;html=1;rounded=0;entryX=0.971;entryY=1;entryDx=0;entryDy=0;entryPerimeter=0;exitX=-0.01;exitY=0.132;exitDx=0;exitDy=0;exitPerimeter=0;" parent="1" source="_Q7EDYe8l2YMMLg8C3C3-84" target="_Q7EDYe8l2YMMLg8C3C3-5" edge="1">
          <mxGeometry width="160" relative="1" as="geometry">
            <mxPoint x="1300" y="210" as="sourcePoint" />
            <mxPoint x="1460" y="210" as="targetPoint" />
            <Array as="points">
              <mxPoint x="1080" y="174" />
              <mxPoint x="1080" y="282" />
            </Array>
          </mxGeometry>
        </mxCell>
        <mxCell id="_Q7EDYe8l2YMMLg8C3C3-175" value="Extends" style="endArrow=block;endSize=16;endFill=0;html=1;rounded=0;exitX=0.557;exitY=1.082;exitDx=0;exitDy=0;exitPerimeter=0;entryX=1.01;entryY=0.8;entryDx=0;entryDy=0;entryPerimeter=0;" parent="1" source="_Q7EDYe8l2YMMLg8C3C3-68" target="_Q7EDYe8l2YMMLg8C3C3-9" edge="1">
          <mxGeometry width="160" relative="1" as="geometry">
            <mxPoint x="990" y="340" as="sourcePoint" />
            <mxPoint x="1150" y="340" as="targetPoint" />
            <Array as="points">
              <mxPoint x="961" y="397" />
            </Array>
          </mxGeometry>
        </mxCell>
        <mxCell id="_Q7EDYe8l2YMMLg8C3C3-176" value="Extends" style="endArrow=block;endSize=16;endFill=0;html=1;rounded=0;entryX=0.488;entryY=1.069;entryDx=0;entryDy=0;entryPerimeter=0;exitX=0.211;exitY=0.999;exitDx=0;exitDy=0;exitPerimeter=0;" parent="1" source="_Q7EDYe8l2YMMLg8C3C3-123" target="_Q7EDYe8l2YMMLg8C3C3-15" edge="1">
          <mxGeometry width="160" relative="1" as="geometry">
            <mxPoint x="1581" y="760" as="sourcePoint" />
            <mxPoint x="1320" y="760" as="targetPoint" />
            <Array as="points">
              <mxPoint x="1560" y="680" />
              <mxPoint x="1180" y="680" />
              <mxPoint x="780" y="680" />
            </Array>
          </mxGeometry>
        </mxCell>
        <mxCell id="_Q7EDYe8l2YMMLg8C3C3-177" value="" style="endArrow=none;endFill=0;html=1;edgeStyle=orthogonalEdgeStyle;align=left;verticalAlign=top;rounded=0;exitX=1;exitY=0.573;exitDx=0;exitDy=0;exitPerimeter=0;" parent="1" source="_Q7EDYe8l2YMMLg8C3C3-117" edge="1">
          <mxGeometry x="-1" relative="1" as="geometry">
            <mxPoint x="1040" y="1340" as="sourcePoint" />
            <mxPoint x="1240" y="1100" as="targetPoint" />
            <mxPoint as="offset" />
          </mxGeometry>
        </mxCell>
        <mxCell id="_Q7EDYe8l2YMMLg8C3C3-178" value="1" style="edgeLabel;resizable=0;html=1;align=left;verticalAlign=bottom;" parent="_Q7EDYe8l2YMMLg8C3C3-177" connectable="0" vertex="1">
          <mxGeometry x="-1" relative="1" as="geometry">
            <mxPoint x="8" y="-1" as="offset" />
          </mxGeometry>
        </mxCell>
        <mxCell id="Hdpylny2_1FY871QO0we-1" value="ActualFlight" style="swimlane;fontStyle=1;align=center;verticalAlign=top;childLayout=stackLayout;horizontal=1;startSize=26;horizontalStack=0;resizeParent=1;resizeParentMax=0;resizeLast=0;collapsible=1;marginBottom=0;whiteSpace=wrap;html=1;" parent="1" vertex="1">
          <mxGeometry x="1700" y="-224" width="280" height="224" as="geometry">
            <mxRectangle x="1021" y="180" width="70" height="30" as="alternateBounds" />
          </mxGeometry>
        </mxCell>
        <mxCell id="Hdpylny2_1FY871QO0we-2" value="&lt;p style=&quot;border-color: var(--border-color); margin: 0px 0px 0px 4px;&quot;&gt;&lt;span style=&quot;background-color: initial;&quot;&gt;+ step_number: int&lt;/span&gt;&lt;br&gt;&lt;/p&gt;" style="text;strokeColor=none;fillColor=none;align=left;verticalAlign=top;spacingLeft=4;spacingRight=4;overflow=hidden;rotatable=0;points=[[0,0.5],[1,0.5]];portConstraint=eastwest;whiteSpace=wrap;html=1;" parent="Hdpylny2_1FY871QO0we-1" vertex="1">
          <mxGeometry y="26" width="280" height="24" as="geometry" />
        </mxCell>
        <mxCell id="Hdpylny2_1FY871QO0we-3" value="&lt;p style=&quot;border-color: var(--border-color); margin: 0px 0px 0px 4px;&quot;&gt;+ scheduled_flight: ScheduleFlight object&lt;br&gt;&lt;/p&gt;" style="text;strokeColor=none;fillColor=none;align=left;verticalAlign=top;spacingLeft=4;spacingRight=4;overflow=hidden;rotatable=0;points=[[0,0.5],[1,0.5]];portConstraint=eastwest;whiteSpace=wrap;html=1;" parent="Hdpylny2_1FY871QO0we-1" vertex="1">
          <mxGeometry y="50" width="280" height="24" as="geometry" />
        </mxCell>
        <mxCell id="Hdpylny2_1FY871QO0we-4" value="&lt;p style=&quot;border-color: var(--border-color); margin: 0px 0px 0px 4px;&quot;&gt;&lt;span style=&quot;background-color: initial;&quot;&gt;+ priority : bool&lt;/span&gt;&lt;br&gt;&lt;/p&gt;" style="text;strokeColor=none;fillColor=none;align=left;verticalAlign=top;spacingLeft=4;spacingRight=4;overflow=hidden;rotatable=0;points=[[0,0.5],[1,0.5]];portConstraint=eastwest;whiteSpace=wrap;html=1;" parent="Hdpylny2_1FY871QO0we-1" vertex="1">
          <mxGeometry y="74" width="280" height="24" as="geometry" />
        </mxCell>
        <mxCell id="Hdpylny2_1FY871QO0we-5" value="&lt;p style=&quot;border-color: var(--border-color); margin: 0px 0px 0px 4px;&quot;&gt;&lt;span style=&quot;background-color: initial;&quot;&gt;+ assigned_time : int&lt;/span&gt;&lt;br&gt;&lt;/p&gt;" style="text;strokeColor=none;fillColor=none;align=left;verticalAlign=top;spacingLeft=4;spacingRight=4;overflow=hidden;rotatable=0;points=[[0,0.5],[1,0.5]];portConstraint=eastwest;whiteSpace=wrap;html=1;" parent="Hdpylny2_1FY871QO0we-1" vertex="1">
          <mxGeometry y="98" width="280" height="24" as="geometry" />
        </mxCell>
        <mxCell id="Hdpylny2_1FY871QO0we-6" value="&lt;p style=&quot;border-color: var(--border-color); margin: 0px 0px 0px 4px;&quot;&gt;&lt;span style=&quot;background-color: initial;&quot;&gt;+ desired_time : int&lt;/span&gt;&lt;br&gt;&lt;/p&gt;" style="text;strokeColor=none;fillColor=none;align=left;verticalAlign=top;spacingLeft=4;spacingRight=4;overflow=hidden;rotatable=0;points=[[0,0.5],[1,0.5]];portConstraint=eastwest;whiteSpace=wrap;html=1;" parent="Hdpylny2_1FY871QO0we-1" vertex="1">
          <mxGeometry y="122" width="280" height="24" as="geometry" />
        </mxCell>
        <mxCell id="Hdpylny2_1FY871QO0we-7" value="&lt;p style=&quot;border-color: var(--border-color); margin: 0px 0px 0px 4px;&quot;&gt;&lt;span style=&quot;background-color: initial;&quot;&gt;+ margins : tuple&lt;/span&gt;&lt;br&gt;&lt;/p&gt;" style="text;strokeColor=none;fillColor=none;align=left;verticalAlign=top;spacingLeft=4;spacingRight=4;overflow=hidden;rotatable=0;points=[[0,0.5],[1,0.5]];portConstraint=eastwest;whiteSpace=wrap;html=1;" parent="Hdpylny2_1FY871QO0we-1" vertex="1">
          <mxGeometry y="146" width="280" height="24" as="geometry" />
        </mxCell>
        <mxCell id="Hdpylny2_1FY871QO0we-8" value="&lt;p style=&quot;border-color: var(--border-color); margin: 0px 0px 0px 4px;&quot;&gt;&lt;span style=&quot;background-color: initial;&quot;&gt;+ Optimization_time : int&lt;/span&gt;&lt;br&gt;&lt;/p&gt;" style="text;strokeColor=none;fillColor=none;align=left;verticalAlign=top;spacingLeft=4;spacingRight=4;overflow=hidden;rotatable=0;points=[[0,0.5],[1,0.5]];portConstraint=eastwest;whiteSpace=wrap;html=1;" parent="Hdpylny2_1FY871QO0we-1" vertex="1">
          <mxGeometry y="170" width="280" height="24" as="geometry" />
        </mxCell>
        <mxCell id="Hdpylny2_1FY871QO0we-9" value="" style="line;strokeWidth=1;fillColor=none;align=left;verticalAlign=middle;spacingTop=-1;spacingLeft=3;spacingRight=3;rotatable=0;labelPosition=right;points=[];portConstraint=eastwest;strokeColor=inherit;" parent="Hdpylny2_1FY871QO0we-1" vertex="1">
          <mxGeometry y="194" width="280" height="8" as="geometry" />
        </mxCell>
        <mxCell id="Hdpylny2_1FY871QO0we-10" value="+&amp;nbsp;" style="text;strokeColor=none;fillColor=none;align=left;verticalAlign=top;spacingLeft=4;spacingRight=4;overflow=hidden;rotatable=0;points=[[0,0.5],[1,0.5]];portConstraint=eastwest;whiteSpace=wrap;html=1;" parent="Hdpylny2_1FY871QO0we-1" vertex="1">
          <mxGeometry y="202" width="280" height="22" as="geometry" />
        </mxCell>
        <mxCell id="Hdpylny2_1FY871QO0we-13" value="&lt;font style=&quot;font-size: 14px;&quot;&gt;*&lt;/font&gt;" style="edgeLabel;resizable=0;html=1;align=left;verticalAlign=bottom;" parent="1" connectable="0" vertex="1">
          <mxGeometry x="1670.0000000000005" y="-111.99599999999987" as="geometry" />
        </mxCell>
        <mxCell id="Ld22rGKfUOhFFdVZ5UIC-2" value="RandomWindowStrategy" style="swimlane;fontStyle=1;align=center;verticalAlign=top;childLayout=stackLayout;horizontal=1;startSize=26;horizontalStack=0;resizeParent=1;resizeParentMax=0;resizeLast=0;collapsible=1;marginBottom=0;whiteSpace=wrap;html=1;" vertex="1" parent="1">
          <mxGeometry x="2600" y="281" width="200" height="86" as="geometry" />
        </mxCell>
        <mxCell id="Ld22rGKfUOhFFdVZ5UIC-3" value="+&amp;nbsp;" style="text;strokeColor=none;fillColor=none;align=left;verticalAlign=top;spacingLeft=4;spacingRight=4;overflow=hidden;rotatable=0;points=[[0,0.5],[1,0.5]];portConstraint=eastwest;whiteSpace=wrap;html=1;" vertex="1" parent="Ld22rGKfUOhFFdVZ5UIC-2">
          <mxGeometry y="26" width="200" height="26" as="geometry" />
        </mxCell>
        <mxCell id="Ld22rGKfUOhFFdVZ5UIC-4" value="" style="line;strokeWidth=1;fillColor=none;align=left;verticalAlign=middle;spacingTop=-1;spacingLeft=3;spacingRight=3;rotatable=0;labelPosition=right;points=[];portConstraint=eastwest;strokeColor=inherit;" vertex="1" parent="Ld22rGKfUOhFFdVZ5UIC-2">
          <mxGeometry y="52" width="200" height="8" as="geometry" />
        </mxCell>
        <mxCell id="Ld22rGKfUOhFFdVZ5UIC-5" value="+ window()" style="text;strokeColor=none;fillColor=none;align=left;verticalAlign=top;spacingLeft=4;spacingRight=4;overflow=hidden;rotatable=0;points=[[0,0.5],[1,0.5]];portConstraint=eastwest;whiteSpace=wrap;html=1;" vertex="1" parent="Ld22rGKfUOhFFdVZ5UIC-2">
          <mxGeometry y="60" width="200" height="26" as="geometry" />
        </mxCell>
        <mxCell id="Ld22rGKfUOhFFdVZ5UIC-6" value="" style="endArrow=block;dashed=1;endFill=0;endSize=12;html=1;rounded=0;exitX=-0.023;exitY=0.647;exitDx=0;exitDy=0;exitPerimeter=0;entryX=1.011;entryY=0.355;entryDx=0;entryDy=0;entryPerimeter=0;" edge="1" parent="1" source="Ld22rGKfUOhFFdVZ5UIC-3" target="Ld22rGKfUOhFFdVZ5UIC-7">
          <mxGeometry width="160" relative="1" as="geometry">
            <mxPoint x="2607" y="337" as="sourcePoint" />
            <mxPoint x="2537" y="376.8712306153077" as="targetPoint" />
          </mxGeometry>
        </mxCell>
        <mxCell id="Ld22rGKfUOhFFdVZ5UIC-7" value="&lt;p style=&quot;margin:0px;margin-top:4px;text-align:center;&quot;&gt;&lt;i&gt;&amp;lt;&amp;lt;Interface&amp;gt;&amp;gt;&lt;/i&gt;&lt;br&gt;&lt;b&gt;WindowStrategy&lt;br&gt;&lt;/b&gt;&lt;/p&gt;&lt;hr size=&quot;1&quot;&gt;&lt;p style=&quot;margin:0px;margin-left:4px;&quot;&gt;+&amp;nbsp;&lt;br&gt;&lt;/p&gt;&lt;hr size=&quot;1&quot;&gt;&lt;p style=&quot;margin:0px;margin-left:4px;&quot;&gt;+ window()&lt;br&gt;&lt;/p&gt;" style="verticalAlign=top;align=left;overflow=fill;fontSize=12;fontFamily=Helvetica;html=1;whiteSpace=wrap;" vertex="1" parent="1">
          <mxGeometry x="2280" y="281" width="200" height="116" as="geometry" />
        </mxCell>
        <mxCell id="Ld22rGKfUOhFFdVZ5UIC-10" value="" style="endArrow=none;endFill=0;html=1;edgeStyle=orthogonalEdgeStyle;align=left;verticalAlign=top;rounded=0;exitX=1;exitY=0.5;exitDx=0;exitDy=0;" edge="1" parent="1" source="_Q7EDYe8l2YMMLg8C3C3-62">
          <mxGeometry x="-1" relative="1" as="geometry">
            <mxPoint x="2250" y="420" as="sourcePoint" />
            <mxPoint x="2280" y="337" as="targetPoint" />
          </mxGeometry>
        </mxCell>
        <mxCell id="Ld22rGKfUOhFFdVZ5UIC-11" value="1" style="edgeLabel;resizable=0;html=1;align=left;verticalAlign=bottom;" connectable="0" vertex="1" parent="Ld22rGKfUOhFFdVZ5UIC-10">
          <mxGeometry x="-1" relative="1" as="geometry">
            <mxPoint x="10" y="-7" as="offset" />
          </mxGeometry>
        </mxCell>
        <mxCell id="Ld22rGKfUOhFFdVZ5UIC-12" value="1" style="edgeLabel;resizable=0;html=1;align=left;verticalAlign=bottom;" connectable="0" vertex="1" parent="1">
          <mxGeometry x="2260" y="330" as="geometry" />
        </mxCell>
      </root>
    </mxGraphModel>
  </diagram>
</mxfile>
